<mxfile host="drawio-plugin" modified="2022-02-02T14:54:59.969Z" agent="5.0 (Macintosh; Intel Mac OS X 12_0_1) AppleWebKit/537.36 (KHTML, like Gecko) Chrome/89.0.4389.114 Safari/537.36" etag="Ju2Oz5_by6we1OaI3yuZ" version="15.5.4" type="embed"><diagram id="DWjpSvbVxY2pOprUcE6g" name="Page-1"><mxGraphModel dx="1330" dy="613" grid="1" gridSize="10" guides="1" tooltips="1" connect="1" arrows="1" fold="1" page="1" pageScale="1" pageWidth="827" pageHeight="1169" math="0" shadow="0"><root><mxCell id="0"/><mxCell id="1" parent="0"/><mxCell id="WkdalmxvpJmTztUUumEF-71" value="" style="rounded=0;whiteSpace=wrap;html=1;verticalAlign=bottom;" parent="1" vertex="1"><mxGeometry x="820" y="570" width="280" height="90" as="geometry"/></mxCell><mxCell id="WkdalmxvpJmTztUUumEF-3" value="Domain" style="ellipse;whiteSpace=wrap;html=1;verticalAlign=top;" parent="1" vertex="1"><mxGeometry x="185.5" y="210" width="630" height="330" as="geometry"/></mxCell><mxCell id="WkdalmxvpJmTztUUumEF-8" value="Data Platform" style="rounded=0;whiteSpace=wrap;html=1;verticalAlign=bottom;" parent="1" vertex="1"><mxGeometry x="25" y="570" width="785" height="90" as="geometry"/></mxCell><mxCell id="WkdalmxvpJmTztUUumEF-9" value="Federated Governance" style="rounded=0;whiteSpace=wrap;html=1;verticalAlign=top;" parent="1" vertex="1"><mxGeometry x="20" y="80" width="1080" height="90" as="geometry"/></mxCell><mxCell id="WkdalmxvpJmTztUUumEF-10" value="Guild" style="shape=umlActor;verticalLabelPosition=bottom;verticalAlign=top;html=1;outlineConnect=0;" parent="1" vertex="1"><mxGeometry x="797" y="90" width="30" height="60" as="geometry"/></mxCell><mxCell id="WkdalmxvpJmTztUUumEF-11" value="Domain Team" style="shape=umlActor;verticalLabelPosition=bottom;verticalAlign=top;html=1;outlineConnect=0;" parent="1" vertex="1"><mxGeometry x="355.5" y="230" width="30" height="60" as="geometry"/></mxCell><mxCell id="WkdalmxvpJmTztUUumEF-12" value="Data Platform Team" style="shape=umlActor;verticalLabelPosition=bottom;verticalAlign=top;html=1;outlineConnect=0;" parent="1" vertex="1"><mxGeometry x="730" y="577.5" width="30" height="60" as="geometry"/></mxCell><mxCell id="WkdalmxvpJmTztUUumEF-17" value="Analysis" style="rounded=0;whiteSpace=wrap;html=1;fillColor=#f5f5f5;fontColor=#333333;strokeColor=#666666;" parent="1" vertex="1"><mxGeometry x="595.5" y="300" width="120" height="60" as="geometry"/></mxCell><mxCell id="WkdalmxvpJmTztUUumEF-19" style="edgeStyle=orthogonalEdgeStyle;rounded=0;orthogonalLoop=1;jettySize=auto;html=1;exitX=1;exitY=0.5;exitDx=0;exitDy=0;" parent="1" source="WkdalmxvpJmTztUUumEF-18" target="WkdalmxvpJmTztUUumEF-17" edge="1"><mxGeometry relative="1" as="geometry"/></mxCell><mxCell id="WkdalmxvpJmTztUUumEF-20" style="edgeStyle=orthogonalEdgeStyle;rounded=0;orthogonalLoop=1;jettySize=auto;html=1;entryX=0;entryY=0.5;entryDx=0;entryDy=0;" parent="1" source="WkdalmxvpJmTztUUumEF-18" target="WkdalmxvpJmTztUUumEF-28" edge="1"><mxGeometry relative="1" as="geometry"><mxPoint x="635.5" y="410" as="targetPoint"/><Array as="points"><mxPoint x="575.5" y="360"/><mxPoint x="575.5" y="410"/></Array></mxGeometry></mxCell><mxCell id="WkdalmxvpJmTztUUumEF-25" value="" style="edgeStyle=orthogonalEdgeStyle;rounded=0;orthogonalLoop=1;jettySize=auto;html=1;startArrow=classic;startFill=1;endArrow=none;endFill=0;" parent="1" source="WkdalmxvpJmTztUUumEF-18" target="WkdalmxvpJmTztUUumEF-24" edge="1"><mxGeometry relative="1" as="geometry"/></mxCell><mxCell id="WkdalmxvpJmTztUUumEF-59" value="ingest &amp;amp; preprocess" style="edgeLabel;html=1;align=center;verticalAlign=middle;resizable=0;points=[];" parent="WkdalmxvpJmTztUUumEF-25" vertex="1" connectable="0"><mxGeometry x="-0.1828" y="3" relative="1" as="geometry"><mxPoint x="-9" y="7" as="offset"/></mxGeometry></mxCell><mxCell id="WkdalmxvpJmTztUUumEF-18" value="Information Objects" style="rounded=0;whiteSpace=wrap;html=1;fillColor=#f5f5f5;fontColor=#333333;strokeColor=#666666;" parent="1" vertex="1"><mxGeometry x="435.5" y="330" width="120" height="60" as="geometry"/></mxCell><mxCell id="WkdalmxvpJmTztUUumEF-24" value="Operational Data" style="rounded=0;whiteSpace=wrap;html=1;fillColor=#f5f5f5;fontColor=#333333;strokeColor=#666666;" parent="1" vertex="1"><mxGeometry x="205.5" y="330" width="120" height="60" as="geometry"/></mxCell><mxCell id="WkdalmxvpJmTztUUumEF-27" value="Global Policies" style="rounded=0;whiteSpace=wrap;html=1;fillColor=#f5f5f5;fontColor=#333333;strokeColor=#666666;" parent="1" vertex="1"><mxGeometry x="160" y="105" width="107" height="50" as="geometry"/></mxCell><mxCell id="WkdalmxvpJmTztUUumEF-28" value="Data Product" style="rounded=0;whiteSpace=wrap;html=1;fillColor=#f5f5f5;fontColor=#333333;strokeColor=#666666;" parent="1" vertex="1"><mxGeometry x="595.5" y="380" width="120" height="60" as="geometry"/></mxCell><mxCell id="WkdalmxvpJmTztUUumEF-33" value="Domain" style="ellipse;whiteSpace=wrap;html=1;verticalAlign=middle;" parent="1" vertex="1"><mxGeometry x="840.5" y="380" width="90" height="60" as="geometry"/></mxCell><mxCell id="WkdalmxvpJmTztUUumEF-31" style="rounded=0;orthogonalLoop=1;jettySize=auto;html=1;entryX=1;entryY=0.5;entryDx=0;entryDy=0;startArrow=classic;startFill=1;endArrow=none;endFill=0;exitX=0;exitY=0.5;exitDx=0;exitDy=0;" parent="1" source="WkdalmxvpJmTztUUumEF-33" target="WkdalmxvpJmTztUUumEF-28" edge="1"><mxGeometry relative="1" as="geometry"><mxPoint x="875.5" y="410" as="sourcePoint"/></mxGeometry></mxCell><mxCell id="WkdalmxvpJmTztUUumEF-34" value="Catalog" style="rounded=0;whiteSpace=wrap;html=1;fillColor=#f5f5f5;fontColor=#333333;strokeColor=#666666;" parent="1" vertex="1"><mxGeometry x="40" y="585" width="120" height="45" as="geometry"/></mxCell><mxCell id="WkdalmxvpJmTztUUumEF-35" value="Access" style="rounded=0;whiteSpace=wrap;html=1;fillColor=#f5f5f5;fontColor=#333333;strokeColor=#666666;" parent="1" vertex="1"><mxGeometry x="180" y="585" width="120" height="45" as="geometry"/></mxCell><mxCell id="WkdalmxvpJmTztUUumEF-36" value="PII" style="rounded=0;whiteSpace=wrap;html=1;fillColor=#f5f5f5;fontColor=#333333;strokeColor=#666666;" parent="1" vertex="1"><mxGeometry x="320" y="585" width="70" height="45" as="geometry"/></mxCell><mxCell id="WkdalmxvpJmTztUUumEF-41" value="Domain" style="ellipse;whiteSpace=wrap;html=1;verticalAlign=top;" parent="1" vertex="1"><mxGeometry x="0.5" y="260" width="140" height="100" as="geometry"/></mxCell><mxCell id="WkdalmxvpJmTztUUumEF-42" value="Data Product" style="rounded=0;whiteSpace=wrap;html=1;fillColor=#f5f5f5;fontColor=#333333;strokeColor=#666666;" parent="1" vertex="1"><mxGeometry x="27.5" y="290" width="90" height="40" as="geometry"/></mxCell><mxCell id="WkdalmxvpJmTztUUumEF-45" style="edgeStyle=orthogonalEdgeStyle;rounded=0;orthogonalLoop=1;jettySize=auto;html=1;startArrow=classic;startFill=1;endArrow=none;endFill=0;exitX=0;exitY=0.25;exitDx=0;exitDy=0;entryX=1;entryY=0.25;entryDx=0;entryDy=0;" parent="1" source="WkdalmxvpJmTztUUumEF-17" target="WkdalmxvpJmTztUUumEF-42" edge="1"><mxGeometry relative="1" as="geometry"><mxPoint x="605.5" y="435" as="sourcePoint"/><mxPoint x="165.5" y="360" as="targetPoint"/><Array as="points"><mxPoint x="117.5" y="315"/></Array></mxGeometry></mxCell><mxCell id="WkdalmxvpJmTztUUumEF-46" value="Security" style="rounded=0;whiteSpace=wrap;html=1;fillColor=#f5f5f5;fontColor=#333333;strokeColor=#666666;" parent="1" vertex="1"><mxGeometry x="405" y="585" width="95" height="45" as="geometry"/></mxCell><mxCell id="WkdalmxvpJmTztUUumEF-47" value="Policy Automation" style="rounded=0;whiteSpace=wrap;html=1;fillColor=#f5f5f5;fontColor=#333333;strokeColor=#666666;" parent="1" vertex="1"><mxGeometry x="507" y="585" width="120" height="45" as="geometry"/></mxCell><mxCell id="WkdalmxvpJmTztUUumEF-48" value="Monitoring" style="rounded=0;whiteSpace=wrap;html=1;fillColor=#f5f5f5;fontColor=#333333;strokeColor=#666666;" parent="1" vertex="1"><mxGeometry x="635.5" y="585" width="84.5" height="45" as="geometry"/></mxCell><mxCell id="WkdalmxvpJmTztUUumEF-54" value="ADR" style="rounded=0;whiteSpace=wrap;html=1;fillColor=#f5f5f5;fontColor=#333333;strokeColor=#666666;" parent="1" vertex="1"><mxGeometry x="40" y="105" width="107" height="50" as="geometry"/></mxCell><mxCell id="WkdalmxvpJmTztUUumEF-55" value="Standard" style="rounded=0;whiteSpace=wrap;html=1;fillColor=#f5f5f5;fontColor=#333333;strokeColor=#666666;" parent="1" vertex="1"><mxGeometry x="280" y="105" width="107" height="50" as="geometry"/></mxCell><mxCell id="WkdalmxvpJmTztUUumEF-56" value="Interoperability" style="rounded=0;whiteSpace=wrap;html=1;fillColor=#f5f5f5;fontColor=#333333;strokeColor=#666666;" parent="1" vertex="1"><mxGeometry x="400" y="105" width="107" height="50" as="geometry"/></mxCell><mxCell id="WkdalmxvpJmTztUUumEF-57" value="Documentation" style="rounded=0;whiteSpace=wrap;html=1;fillColor=#f5f5f5;fontColor=#333333;strokeColor=#666666;" parent="1" vertex="1"><mxGeometry x="520" y="105" width="107" height="50" as="geometry"/></mxCell><mxCell id="WkdalmxvpJmTztUUumEF-58" value="Security" style="rounded=0;whiteSpace=wrap;html=1;fillColor=#f5f5f5;fontColor=#333333;strokeColor=#666666;" parent="1" vertex="1"><mxGeometry x="640" y="105" width="107" height="50" as="geometry"/></mxCell><mxCell id="WkdalmxvpJmTztUUumEF-65" value="Domain" style="ellipse;whiteSpace=wrap;html=1;verticalAlign=top;" parent="1" vertex="1"><mxGeometry x="-0.5" y="375" width="140" height="100" as="geometry"/></mxCell><mxCell id="WkdalmxvpJmTztUUumEF-66" value="Data Product" style="rounded=0;whiteSpace=wrap;html=1;fillColor=#f5f5f5;fontColor=#333333;strokeColor=#666666;" parent="1" vertex="1"><mxGeometry x="26.5" y="405" width="90" height="40" as="geometry"/></mxCell><mxCell id="WkdalmxvpJmTztUUumEF-44" style="rounded=0;orthogonalLoop=1;jettySize=auto;html=1;entryX=1;entryY=0.5;entryDx=0;entryDy=0;startArrow=classic;startFill=1;endArrow=none;endFill=0;exitX=0;exitY=0.75;exitDx=0;exitDy=0;" parent="1" source="WkdalmxvpJmTztUUumEF-28" target="WkdalmxvpJmTztUUumEF-66" edge="1"><mxGeometry relative="1" as="geometry"><mxPoint x="322.5" y="560" as="sourcePoint"/><mxPoint x="135.5" y="510" as="targetPoint"/></mxGeometry></mxCell><mxCell id="WkdalmxvpJmTztUUumEF-69" value="Enablement Team" style="shape=umlActor;verticalLabelPosition=bottom;verticalAlign=top;html=1;outlineConnect=0;" parent="1" vertex="1"><mxGeometry x="940" y="577.5" width="30" height="60" as="geometry"/></mxCell><mxCell id="WkdalmxvpJmTztUUumEF-70" value="Templates" style="rounded=0;whiteSpace=wrap;html=1;fillColor=#f5f5f5;fontColor=#333333;strokeColor=#666666;" parent="1" vertex="1"><mxGeometry x="830.5" y="585" width="84.5" height="45" as="geometry"/></mxCell><mxCell id="WkdalmxvpJmTztUUumEF-72" value="Consulting" style="rounded=0;whiteSpace=wrap;html=1;fillColor=#f5f5f5;fontColor=#333333;strokeColor=#666666;" parent="1" vertex="1"><mxGeometry x="1000" y="585" width="84.5" height="45" as="geometry"/></mxCell></root></mxGraphModel></diagram></mxfile>